<?xml version="1.0" encoding="UTF-8"?>
<svg id="Laag_3_kopie" xmlns="http://www.w3.org/2000/svg" xmlns:xlink="http://www.w3.org/1999/xlink" viewBox="0 0 500 500">
  <defs>
    <style>
      .cls-1 {
        fill: url(#Naamloos_verloop_3-3);
      }

      .cls-2 {
        fill: url(#Naamloos_verloop_3-4);
      }

      .cls-3 {
        fill: url(#Naamloos_verloop_3-2);
      }

      .cls-4 {
        fill: url(#Naamloos_verloop_3);
      }
    </style>
    <linearGradient id="Naamloos_verloop_3" data-name="Naamloos verloop 3" x1="241.29" y1="220.79" x2="465.85" y2="153.98" gradientUnits="userSpaceOnUse">
      <stop offset=".04" stop-color="#ffe500"/>
      <stop offset=".99" stop-color="#f60"/>
    </linearGradient>
    <linearGradient id="Naamloos_verloop_3-2" data-name="Naamloos verloop 3" x1="528.86" y1="220.79" x2="753.42" y2="153.98" gradientTransform="translate(787.57) rotate(-180) scale(1 -1)" xlink:href="#Naamloos_verloop_3"/>
    <linearGradient id="Naamloos_verloop_3-3" data-name="Naamloos verloop 3" x1="271.99" y1="349.53" x2="410.17" y2="308.42" xlink:href="#Naamloos_verloop_3"/>
    <linearGradient id="Naamloos_verloop_3-4" data-name="Naamloos verloop 3" x1="408.6" y1="351.36" x2="546.77" y2="310.25" gradientTransform="translate(637.38) rotate(-180) scale(1 -1)" xlink:href="#Naamloos_verloop_3"/>
  </defs>
  <path class="cls-4" d="M249.34,246.34c-4.01-12.84,53.46-149.82,171.6-171.6,15.28-2.82,61.38,5.94,60.06,28.38-1.71,29.02-17.93,28.48-24.42,37.62-5.44,7.65-5.16,28.88-8.58,37.62-5.94,15.18-13.58,14.08-16.5,20.46-4.4,9.61,2.05,27.85-1.98,37.62-3.93,9.53-20.75,30.12-31.02,31.02-37.62,3.3-149.16-6.42-149.16-6.42v-14.7Z"/>
  <path class="cls-3" d="M250.66,246.34c4.01-12.84-53.46-149.82-171.6-171.6-15.28-2.82-61.38,5.94-60.06,28.38,1.71,29.02,17.93,28.48,24.42,37.62,5.44,7.65,5.16,28.88,8.58,37.62,5.94,15.18,13.58,14.08,16.5,20.46,4.4,9.61-2.05,27.85,1.98,37.62,3.93,9.53,20.75,30.12,31.02,31.02,37.62,3.3,149.16-6.42,149.16-6.42v-14.7Z"/>
  <path class="cls-1" d="M250.66,277.9s14.84,63.82,22.44,80.52c8.57,18.81,29.47,55.67,47.52,62.04,22.44,7.92,25.19,4.9,33,3.96,6.31-.76,18.39-3.2,23.76-6.6,4.88-3.09,7.7-15.82,11.88-19.8,6.61-6.3,29.04-10.56,27.72-23.76-.62-6.17-2.28-19.04,0-24.81,1.67-4.22,9.17-10.46,10.56-14.79,2.36-7.37,4.25-24.49,0-30.95-2.07-3.15-7.92-.73-13.2-7.33-6.6-8.25-3.96-22.44-33-26.4-20.88-2.85-126.72-11.88-126.72-11.88l-11.88-.46,7.92,20.26Z"/>
  <path class="cls-2" d="M250.66,277.9s-14.84,63.82-22.44,80.52c-8.57,18.81-29.47,55.67-47.52,62.04-22.44,7.92-25.19,4.9-33,3.96-6.31-.76-18.39-3.2-23.76-6.6-4.88-3.09-7.7-15.82-11.88-19.8-6.61-6.3-29.04-10.56-27.72-23.76.62-6.17,2.28-19.04,0-24.81-1.67-4.22-9.17-10.46-10.56-14.79-2.36-7.37-4.25-24.49,0-30.95,2.07-3.15,7.92-.73,13.2-7.33,6.6-8.25,3.96-22.44,33-26.4,20.88-2.85,126.72-11.88,126.72-11.88l3.96,11.88v7.92Z"/>
</svg>