<svg width="66" height="66" viewBox="0 0 66 66" fill="none" xmlns="http://www.w3.org/2000/svg">
<path d="M30.8178 44.7647C31.2046 45.151 31.7288 45.3679 32.2753 45.3679C32.8219 45.3679 33.3461 45.151 33.7328 44.7647L39.9203 38.58C40.2847 38.189 40.483 37.6719 40.4736 37.1375C40.4642 36.6032 40.2477 36.0934 39.8698 35.7155C39.4919 35.3376 38.9821 35.1212 38.4478 35.1117C37.9135 35.1023 37.3963 35.3006 37.0053 35.665L32.2753 40.3867L27.5453 35.6595C27.355 35.4626 27.1273 35.3055 26.8757 35.1976C26.624 35.0896 26.3533 35.0328 26.0794 35.0306C25.8056 35.0283 25.534 35.0806 25.2806 35.1845C25.0272 35.2883 24.797 35.4416 24.6034 35.6353C24.4098 35.829 24.2568 36.0594 24.1532 36.3129C24.0496 36.5664 23.9976 36.838 24.0001 37.1119C24.0026 37.3858 24.0596 37.6564 24.1678 37.908C24.276 38.1595 24.4333 38.387 24.6303 38.5772L30.8178 44.7647ZM32.2753 24.9015C31.6919 24.9015 31.1323 24.6697 30.7197 24.2571C30.3071 23.8445 30.0753 23.2849 30.0753 22.7015C30.0753 22.118 30.3071 21.5584 30.7197 21.1458C31.1323 20.7332 31.6919 20.5015 32.2753 20.5015C32.8588 20.5015 33.4184 20.7332 33.831 21.1458C34.2436 21.5584 34.4753 22.118 34.4753 22.7015C34.4753 23.2849 34.2436 23.8445 33.831 24.2571C33.4184 24.6697 32.8588 24.9015 32.2753 24.9015ZM30.0753 30.4455C30.0753 30.7344 30.1323 31.0205 30.2428 31.2874C30.3534 31.5543 30.5154 31.7968 30.7197 32.0011C30.924 32.2054 31.1665 32.3674 31.4334 32.478C31.7004 32.5886 31.9864 32.6455 32.2753 32.6455C32.5643 32.6455 32.8503 32.5886 33.1172 32.478C33.3842 32.3674 33.6267 32.2054 33.831 32.0011C34.0353 31.7968 34.1973 31.5543 34.3079 31.2874C34.4184 31.0205 34.4753 30.7344 34.4753 30.4455C34.4753 29.862 34.2436 29.3024 33.831 28.8898C33.4184 28.4773 32.8588 28.2455 32.2753 28.2455C31.6919 28.2455 31.1323 28.4773 30.7197 28.8898C30.3071 29.3024 30.0753 29.862 30.0753 30.4455Z" fill="white"/>
<path fill-rule="evenodd" clip-rule="evenodd" d="M32.625 5.50293C27.1549 5.50293 21.9089 7.67591 18.0409 11.5439C14.173 15.4118 12 20.6578 12 26.1279V39.8779C12 45.348 14.173 50.5941 18.0409 54.462C21.9089 58.3299 27.1549 60.5029 32.625 60.5029C38.0951 60.5029 43.3411 58.3299 47.2091 54.462C51.077 50.5941 53.25 45.348 53.25 39.8779V26.1279C53.25 20.6578 51.077 15.4118 47.2091 11.5439C43.3411 7.67591 38.0951 5.50293 32.625 5.50293ZM16.125 26.1279C16.125 21.7519 17.8634 17.555 20.9577 14.4607C24.0521 11.3663 28.2489 9.62793 32.625 9.62793C37.0011 9.62793 41.1979 11.3663 44.2923 14.4607C47.3866 17.555 49.125 21.7519 49.125 26.1279V39.8779C49.125 44.254 47.3866 48.4508 44.2923 51.5452C41.1979 54.6395 37.0011 56.3779 32.625 56.3779C28.2489 56.3779 24.0521 54.6395 20.9577 51.5452C17.8634 48.4508 16.125 44.254 16.125 39.8779V26.1279Z" fill="white"/>
</svg>
